<?xml version="1.0" standalone="no"?>
<!DOCTYPE svg PUBLIC "-//W3C//DTD SVG 20010904//EN"
 "http://www.w3.org/TR/2001/REC-SVG-20010904/DTD/svg10.dtd">
<svg version="1.0" xmlns="http://www.w3.org/2000/svg"
 width="700.000000pt" height="700.000000pt" viewBox="0 0 700.000000 700.000000"
 preserveAspectRatio="xMidYMid meet">
<metadata>
Created by potrace 1.14, written by Peter Selinger 2001-2017
</metadata>
<g transform="translate(0.000000,700.000000) scale(0.100000,-0.100000)"
fill="#000000" stroke="none">
<path d="M3220 6994 c-404 -47 -587 -87 -870 -186 -796 -280 -1448 -818 -1879
-1552 -229 -390 -383 -848 -448 -1331 -24 -183 -24 -666 0 -850 107 -800 449
-1498 1007 -2055 506 -505 1157 -845 1860 -970 392 -69 848 -67 1248 5 962
176 1821 764 2342 1604 455 734 621 1621 465 2479 -186 1017 -830 1913 -1742
2424 -373 208 -769 341 -1223 409 -107 17 -197 21 -430 24 -162 2 -311 1 -330
-1z m1450 -1061 c435 -751 640 -1417 617 -2003 -7 -182 -25 -295 -72 -478
-168 -641 -566 -1226 -1155 -1697 -198 -158 -652 -440 -673 -418 -4 3 -7 102
-7 218 l0 212 137 129 c469 442 786 936 947 1475 71 237 123 554 147 894 20
285 1 826 -31 885 -12 21 -16 -2 -40 -255 -62 -647 -153 -1171 -251 -1451
-124 -354 -426 -827 -711 -1116 -102 -102 -185 -174 -194 -165 -3 3 -7 38 -10
79 -2 40 -11 192 -20 338 -37 596 11 1109 136 1464 97 274 204 481 545 1061
316 537 412 723 498 968 4 9 15 17 26 17 14 0 42 -39 111 -157z m-3139 -2598
c312 -64 527 -132 710 -226 119 -61 191 -113 295 -211 211 -199 347 -415 419
-662 79 -276 152 -736 129 -817 l-9 -32 -107 149 c-244 339 -354 466 -601 692
-89 81 -179 165 -201 187 -57 58 -140 172 -225 310 -89 143 -79 131 -90 119
-21 -21 121 -330 210 -459 26 -38 121 -146 210 -240 307 -322 504 -581 677
-886 l32 -57 -42 10 c-122 26 -450 181 -646 302 -226 140 -451 337 -578 506
-89 117 -190 323 -253 514 -98 300 -148 644 -115 804 6 29 28 29 185 -3z
m4140 -1343 c187 -44 365 -122 507 -222 l73 -51 -23 -41 c-35 -62 -168 -181
-302 -270 -67 -44 -206 -122 -311 -173 -458 -225 -610 -259 -1240 -275 -360
-9 -453 -18 -605 -60 -41 -12 -96 -32 -122 -44 -26 -13 -48 -20 -48 -16 0 20
80 134 131 186 122 123 211 158 534 208 422 66 456 75 780 210 225 94 390 187
505 286 53 46 36 52 -153 51 -276 -1 -451 -35 -709 -137 -165 -64 -482 -217
-678 -327 -74 -41 -137 -73 -139 -71 -14 14 264 289 397 392 234 180 556 318
861 367 125 21 428 13 542 -13z"/>
</g>
</svg>
